<svg width="166" height="51" viewBox="0 0 166 51" fill="none" xmlns="http://www.w3.org/2000/svg">
<path d="M13.8729 37.1126V15.3239H27.39V19.2746H18.0229V24.3028H26.4414V28.0141H18.0229V33.0422H27.39V37.1126H13.8729Z" fill="#161512"/>
<path d="M31.54 31.1268V15.4437H35.8085V27.1761H42.2114V31.1268H31.54Z" fill="#161512"/>
<path d="M62.4872 33.5211C64.5029 33.5211 65.8072 32.4436 65.8072 30.6479C65.8072 28.9718 64.74 27.7746 62.6057 27.7746H58.3372V33.5211H62.4872ZM62.1314 24.3028C64.0286 24.3028 65.2143 23.2253 65.2143 21.5493C65.2143 19.8732 64.1472 18.7957 62.1314 18.7957H58.3372V24.3028H62.1314ZM62.7243 15.3239C66.8743 15.3239 69.3643 17.838 69.3643 21.1901C69.3643 23.4648 68.06 25.2605 66.2814 25.8591C68.4157 26.338 70.0757 28.3732 70.0757 31.007C70.0757 34.5986 67.4672 37.1126 63.4357 37.1126H54.3057V15.3239H62.7243Z" fill="#161512"/>
<path d="M72.5657 26.6972V15.2042H76.7157V26.338C76.7157 29.2113 78.2572 30.6479 80.7472 30.6479C83.3557 30.6479 84.8972 29.0915 84.8972 26.338V15.2042H89.0472V26.6972C89.0472 32.0845 85.3714 34.9577 80.7472 34.9577C76.2414 34.838 72.5657 31.9648 72.5657 26.6972Z" fill="#161512"/>
<path d="M142.167 33.4014C145.369 33.4014 148.689 31.1267 148.689 26.338C148.689 21.5493 145.369 19.2746 142.167 19.2746C138.966 19.2746 135.646 21.5493 135.646 26.338C135.646 31.1267 138.847 33.4014 142.167 33.4014ZM142.167 15.3239C147.859 15.3239 152.957 19.5141 152.957 26.338C152.957 33.1619 147.859 37.3521 142.167 37.3521C136.476 37.3521 131.377 33.1619 131.377 26.338C131.377 19.5141 136.476 15.3239 142.167 15.3239Z" fill="#161512"/>
<path d="M101.497 18.9155C103.631 18.9155 104.936 20.1127 104.936 21.9084C104.936 23.7042 103.631 24.9014 101.497 24.9014H100.904C100.667 24.9014 100.43 24.9014 100.193 24.9014H98.0586V18.9155H101.497ZM106.359 27.2958C108.137 26.2183 109.204 24.3028 109.204 21.9084C109.204 18.0775 106.477 15.2042 102.327 15.2042H93.9086V34.2394H98.1771V29.0915H100.311C103.157 29.0915 105.41 31.3662 105.41 34.2394H109.441C109.441 31.4859 108.256 28.9718 106.359 27.2958Z" fill="#161512"/>
<path d="M120.469 18.9155C122.603 18.9155 123.907 20.1127 123.907 21.9084C123.907 23.7042 122.603 24.9014 120.469 24.9014H119.401C119.283 24.9014 119.283 24.9014 119.164 24.9014H117.03V18.7958H120.469V18.9155ZM125.33 27.2958C127.109 26.2183 128.176 24.3028 128.176 21.9084C128.176 18.0775 125.449 15.2042 121.299 15.2042H112.88V34.2394H117.149V29.0915H119.283C122.129 29.0915 124.381 31.3662 124.381 34.2394H128.413C128.413 31.4859 127.227 28.9718 125.33 27.2958Z" fill="#161512"/>
<path d="M4.15 46.8099H161.969V4.19014H4.15V46.8099ZM166 51H0V0H166V51Z" fill="#161512"/>
</svg>
